<svg xmlns="http://www.w3.org/2000/svg" width="32" height="32"><path d="m31.242 28.766-7.943-7.943c3.813-5.024 3.431-12.237-1.151-16.82C19.725 1.58 16.503.245 13.076.245S6.427 1.58 4.004 4.003.246 9.648.246 13.075c0 3.427 1.335 6.649 3.758 9.072a12.79 12.79 0 0 0 9.072 3.752c2.734 0 5.466-.869 7.748-2.601l7.943 7.943c.341.342.79.513 1.238.513s.896-.171 1.238-.513a1.75 1.75 0 0 0 0-2.475zM6.479 19.672a9.27 9.27 0 0 1-2.733-6.597c0-2.492.97-4.835 2.733-6.597 1.762-1.762 4.105-2.732 6.596-2.732s4.835.97 6.597 2.733c3.637 3.637 3.637 9.556 0 13.193s-9.556 3.636-13.193 0z"/></svg>